<?xml version="1.0" encoding="iso-8859-1"?>
<!-- Generator: Adobe Illustrator 21.0.2, SVG Export Plug-In . SVG Version: 6.00 Build 0)  -->
<svg version="1.1" xmlns="http://www.w3.org/2000/svg" xmlns:xlink="http://www.w3.org/1999/xlink" width="28" height="28" x="0px" y="0px"
	 viewBox="0 0 22.117 22.096" style="enable-background:new 0 0 22.117 22.096;" xml:space="preserve">
<g id="Sun_x5F_Microsystems">
	<path d="M9.708,0.535c0.679-0.692,1.898-0.718,2.602-0.049c1.498,1.486,2.996,2.975,4.481,4.476
		c-0.381,0.402-0.774,0.795-1.176,1.176c-1.494-1.465-2.962-2.958-4.443-4.437c-0.115,0.112-0.229,0.225-0.339,0.342
		c0.584,0.555,1.125,1.152,1.702,1.715c0.905,0.914,1.828,1.813,2.724,2.736c-0.37,0.402-0.776,0.772-1.152,1.17
		c-1.444-1.459-2.899-2.906-4.361-4.346C9.384,2.978,9.154,2.497,9.131,2C9.103,1.46,9.314,0.908,9.708,0.535z"/>
	<path d="M6.856,3.437c0.38-0.391,0.773-0.771,1.151-1.163c1.485,1.47,2.946,2.964,4.426,4.438c0.539,0.512,0.68,1.351,0.421,2.034
		c-0.157,0.367-0.41,0.694-0.75,0.909c-0.106,0.054-0.211,0.107-0.317,0.161c-0.132,0.041-0.264,0.081-0.4,0.11
		c-0.31,0.006-0.632,0.039-0.926-0.083c-0.072-0.026-0.143-0.054-0.214-0.082C9.837,9.552,9.54,9.193,9.213,8.88
		C7.918,7.573,6.612,6.277,5.315,4.971C5.681,4.614,6.04,4.25,6.398,3.886c0.035-0.033,0.1-0.108,0.145-0.048
		c1.471,1.467,2.932,2.943,4.4,4.412c0.111-0.12,0.228-0.234,0.349-0.344c-1.471-1.48-2.966-2.935-4.432-4.419
		C6.86,3.475,6.858,3.449,6.856,3.437z"/>
	<path d="M0.876,9.415C2.23,8.057,3.595,6.707,4.941,5.34c0.022,0.004,0.067,0.013,0.09,0.017c0.363,0.39,0.755,0.751,1.124,1.137
		c-1.482,1.481-2.962,2.964-4.444,4.444c0.106,0.107,0.207,0.22,0.322,0.318c0.046-0.017,0.086-0.044,0.119-0.081
		c1.447-1.45,2.895-2.901,4.347-4.347C6.878,7.231,7.29,7.6,7.67,8c-1.448,1.482-2.929,2.932-4.388,4.403
		c-0.095,0.103-0.21,0.184-0.323,0.266c-0.135,0.084-0.279,0.153-0.427,0.212C1.77,13.16,0.853,12.874,0.38,12.216
		c-0.411-0.542-0.501-1.307-0.209-1.923C0.32,9.939,0.61,9.68,0.876,9.415z"/>
	<path d="M12.695,9.755c1.471-1.486,2.96-2.956,4.432-4.442c0.406,0.38,0.798,0.777,1.182,1.178c-1.34,1.355-2.695,2.697-4.04,4.048
		c-0.132,0.138-0.282,0.26-0.39,0.418c0.123,0.087,0.2,0.25,0.349,0.292c1.481-1.467,2.952-2.945,4.424-4.421
		c0.393,0.394,0.8,0.776,1.177,1.185c-1.476,1.47-2.946,2.946-4.422,4.416c-0.345,0.349-0.834,0.55-1.323,0.55
		c-0.597,0.009-1.194-0.283-1.546-0.766C11.987,11.497,12.055,10.396,12.695,9.755z"/>
	<path d="M7.451,9.225c0.73-0.247,1.597-0.003,2.074,0.608c0.142,0.157,0.226,0.353,0.316,0.543
		c0.184,0.505,0.141,1.071-0.108,1.546c-0.08,0.131-0.154,0.268-0.265,0.376c-1.393,1.391-2.785,2.785-4.178,4.177
		c-0.104,0.102-0.2,0.213-0.316,0.301c-0.4-0.371-0.774-0.771-1.166-1.15c1.343-1.336,2.68-2.678,4.02-4.016
		c0.139-0.148,0.299-0.276,0.419-0.44c-0.098-0.124-0.218-0.228-0.326-0.343c-1.482,1.485-2.963,2.97-4.45,4.449
		c-0.399-0.391-0.797-0.784-1.189-1.182c1.305-1.301,2.607-2.604,3.91-3.907c0.313-0.305,0.602-0.648,0.994-0.855
		C7.274,9.293,7.362,9.258,7.451,9.225z"/>
	<path d="M18.834,9.712c0.473-0.506,1.245-0.721,1.907-0.509c0.579,0.158,1.043,0.621,1.262,1.172
		c0.188,0.504,0.14,1.07-0.107,1.546c-0.08,0.131-0.158,0.265-0.265,0.375c-1.463,1.463-2.927,2.925-4.389,4.39
		c-0.037,0.047-0.118,0.112-0.165,0.036c-0.365-0.361-0.733-0.72-1.091-1.087c0.007-0.016,0.022-0.047,0.03-0.063
		c1.45-1.459,2.914-2.905,4.359-4.369c0.005-0.169-0.202-0.249-0.291-0.376c-1.483,1.483-2.964,2.968-4.452,4.446
		c-0.385-0.4-0.798-0.773-1.185-1.17C15.905,12.638,17.372,11.177,18.834,9.712z"/>
	<path d="M9.766,12.644c0.702-0.67,1.931-0.641,2.602,0.059c1.453,1.458,2.921,2.9,4.371,4.361c0.104,0.058-0.009,0.123-0.052,0.177
		c-0.361,0.349-0.703,0.718-1.072,1.058c-1.496-1.464-2.957-2.965-4.443-4.441c-0.112,0.111-0.223,0.223-0.337,0.332
		c0.696,0.711,1.406,1.409,2.108,2.113c0.632,0.672,1.301,1.308,1.947,1.967c0.12,0.13,0.268,0.239,0.365,0.388
		c-0.366,0.401-0.768,0.771-1.146,1.162c-0.647-0.649-1.296-1.296-1.943-1.944c-0.831-0.792-1.629-1.618-2.445-2.425
		c-0.361-0.348-0.582-0.838-0.591-1.341C9.111,13.558,9.349,13.005,9.766,12.644z"/>
	<path d="M6.835,15.606c0.395-0.387,0.78-0.783,1.174-1.171c1.505,1.502,3.012,3.002,4.501,4.519c0.174,0.176,0.289,0.4,0.374,0.631
		c0.021,0.065,0.035,0.132,0.051,0.199c0.08,0.385,0.056,0.802-0.103,1.167c-0.035,0.07-0.071,0.141-0.107,0.211
		c-0.158,0.288-0.399,0.521-0.682,0.683c-0.071,0.035-0.141,0.071-0.212,0.107c-0.342,0.168-0.725,0.15-1.095,0.135
		c-0.087-0.039-0.182-0.053-0.271-0.084c-0.233-0.079-0.454-0.2-0.631-0.372c-1.517-1.491-3.018-2.999-4.52-4.506
		c0.405-0.382,0.778-0.797,1.192-1.169c1.476,1.486,2.966,2.958,4.435,4.452c0.114-0.118,0.23-0.234,0.347-0.35
		C9.797,18.582,8.302,17.107,6.835,15.606z"/>
</g>
<g id="Layer_1">
</g>
</svg>
